<svg width="121" height="120" viewBox="0 0 121 120" fill="none" xmlns="http://www.w3.org/2000/svg">
<circle cx="60.5" cy="60" r="60" fill="#F3E9EB"/>
<path fill-rule="evenodd" clip-rule="evenodd" d="M32.3103 41.6309H88.6917C89.3974 41.6309 89.9747 42.2083 89.9747 42.9139V79.5585C89.9747 80.2641 89.3974 80.8414 88.6917 80.8414H32.3103C31.6047 80.8414 31.0273 80.2641 31.0273 79.5585V42.9139C31.0273 42.2083 31.6047 41.6309 32.3103 41.6309Z" fill="#9FACBA"/>
<path fill-rule="evenodd" clip-rule="evenodd" d="M35.6758 53.9258H55.2092V73.4592H35.6758V53.9258Z" fill="#ECEFF1"/>
<path d="M73.5011 89.4729C78.9954 89.4729 83.4494 85.0188 83.4494 79.5245C83.4494 74.0302 78.9954 69.5762 73.5011 69.5762C68.0068 69.5762 63.5527 74.0302 63.5527 79.5245C63.5527 85.0188 68.0068 89.4729 73.5011 89.4729Z" fill="#8AC9FE"/>
<path fill-rule="evenodd" clip-rule="evenodd" d="M72.1947 80.4029L77.0322 75.5172C77.6049 74.9389 78.5391 74.9372 79.1157 75.5107C79.6922 76.0841 79.6941 77.0156 79.122 77.5929C77.1604 79.5727 75.2121 81.5656 73.2414 83.5363C72.6653 84.1124 71.7308 84.1124 71.1547 83.5363L67.8852 80.2668C67.3091 79.6907 67.3091 78.7561 67.8852 78.18C68.4613 77.604 69.3958 77.604 69.9721 78.18L72.1947 80.4029Z" fill="#ECEFF1"/>
<path fill-rule="evenodd" clip-rule="evenodd" d="M37.6807 73.453H53.204C53.3029 73.4534 53.4007 73.4317 53.4902 73.3895C53.5797 73.3473 53.6586 73.2856 53.7212 73.209C53.7838 73.1324 53.8284 73.0427 53.8519 72.9466C53.8754 72.8505 53.8771 72.7503 53.8569 72.6535C53.0588 68.7366 49.5949 65.7891 45.4423 65.7891C41.2896 65.7891 37.8257 68.7366 37.0276 72.6536C37.0074 72.7505 37.0092 72.8506 37.0327 72.9467C37.0562 73.0428 37.1009 73.1324 37.1635 73.209C37.2261 73.2856 37.305 73.3473 37.3945 73.3895C37.484 73.4317 37.5817 73.4534 37.6807 73.453Z" fill="#8AC9FE"/>
<path fill-rule="evenodd" clip-rule="evenodd" d="M51.6863 73.453H53.2041C53.303 73.4534 53.4008 73.4317 53.4903 73.3895C53.5798 73.3473 53.6587 73.2856 53.7213 73.209C53.7839 73.1324 53.8286 73.0427 53.8521 72.9466C53.8756 72.8505 53.8773 72.7503 53.8572 72.6535C53.059 68.7366 49.5951 65.7891 45.4425 65.7891C45.1867 65.7891 44.9338 65.8004 44.6836 65.8222C48.4938 66.1559 51.5904 68.9777 52.3394 72.6535C52.3595 72.7503 52.3578 72.8505 52.3343 72.9466C52.3108 73.0427 52.2661 73.1324 52.2035 73.209C52.1409 73.2856 52.062 73.3473 51.9725 73.3895C51.883 73.4317 51.7852 73.4534 51.6863 73.453Z" fill="#60B7FF"/>
<path d="M45.4435 65.7894C47.8415 65.7894 49.7855 63.8454 49.7855 61.4474C49.7855 59.0494 47.8415 57.1055 45.4435 57.1055C43.0455 57.1055 41.1016 59.0494 41.1016 61.4474C41.1016 63.8454 43.0455 65.7894 45.4435 65.7894Z" fill="#F6DCCD"/>
<path fill-rule="evenodd" clip-rule="evenodd" d="M45.4428 57.1055C47.8409 57.1055 49.7848 59.0495 49.7848 61.4474C49.7848 63.8455 47.8408 65.7895 45.4428 65.7895C45.2375 65.7895 45.0356 65.7749 44.8379 65.7474C46.9496 65.4529 48.575 63.6402 48.575 61.4474C48.575 59.2547 46.9496 57.442 44.8379 57.1476C45.0383 57.1196 45.2405 57.1055 45.4428 57.1055Z" fill="#F1CBBC"/>
<path fill-rule="evenodd" clip-rule="evenodd" d="M60.5011 30.5254C64.0907 30.5254 67.0276 33.4623 67.0276 37.0518V47.4207H53.9746V37.0518C53.9746 33.4622 56.9115 30.5254 60.5011 30.5254Z" fill="#D1D1D6"/>
<path fill-rule="evenodd" clip-rule="evenodd" d="M60.5006 30.5254C64.0903 30.5254 67.0272 33.4623 67.0272 37.0518V47.4207H65.7991V37.0518C65.7991 33.6694 63.1911 30.8668 59.8867 30.5547C60.0908 30.5353 60.2956 30.5255 60.5006 30.5254Z" fill="#B1B1B5"/>
<path d="M60.8915 39.4809C62.2304 39.2629 63.139 38.0008 62.9209 36.6619C62.7029 35.3231 61.4408 34.4145 60.1019 34.6325C58.7631 34.8506 57.8545 36.1127 58.0725 37.4515C58.2906 38.7904 59.5527 39.699 60.8915 39.4809Z" fill="#ECEFF1"/>
<path fill-rule="evenodd" clip-rule="evenodd" d="M60.5008 34.5957C61.8572 34.5957 62.9569 35.6953 62.9569 37.0518C62.9569 38.4084 61.8573 39.508 60.5008 39.508C60.2887 39.508 60.083 39.4811 59.8867 39.4306C60.9461 39.158 61.7288 38.1963 61.7288 37.0518C61.7288 35.9074 60.9461 34.9458 59.8867 34.6731C60.0873 34.6216 60.2936 34.5956 60.5008 34.5957Z" fill="#B1B1B5"/>
<path fill-rule="evenodd" clip-rule="evenodd" d="M73.5008 69.5762C78.9951 69.5762 83.4492 74.0303 83.4492 79.5246C83.4492 85.019 78.9951 89.473 73.5008 89.473C73.2944 89.473 73.0898 89.466 72.8867 89.4536C78.095 89.1364 82.2212 84.8127 82.2212 79.5246C82.2212 74.2366 78.0951 69.9129 72.8867 69.5956C73.0912 69.5829 73.2959 69.5764 73.5008 69.5762Z" fill="#60B7FF"/>
<path fill-rule="evenodd" clip-rule="evenodd" d="M78.4231 76.901C77.6919 77.6399 76.9617 78.3798 76.2324 79.1207C75.0266 80.3421 73.7798 81.6074 72.5456 82.8415C72.4531 82.9334 72.328 82.985 72.1976 82.985C72.0672 82.985 71.9421 82.9334 71.8497 82.8415L68.5791 79.5709C68.4869 79.4785 68.4351 79.3534 68.4351 79.2229C68.4351 79.0924 68.4869 78.9673 68.5791 78.8749C68.6247 78.8289 68.679 78.7924 68.7388 78.7674C68.7986 78.7425 68.8628 78.7297 68.9276 78.7298C68.9925 78.7296 69.0568 78.7423 69.1168 78.7672C69.1767 78.7921 69.2311 78.8287 69.2767 78.8749L71.4993 81.0975C71.5906 81.1887 71.6991 81.261 71.8184 81.3103C71.9377 81.3596 72.0655 81.3849 72.1946 81.3847H72.197C72.3262 81.3843 72.4541 81.3584 72.5733 81.3085C72.6925 81.2587 72.8008 81.1858 72.8918 81.094L77.7294 76.2084C77.8537 76.083 77.9982 76.0651 78.0745 76.0633H78.0756C78.1531 76.0633 78.2981 76.0829 78.4218 76.2072C78.4675 76.2526 78.5038 76.3066 78.5287 76.3661C78.5535 76.4256 78.5663 76.4894 78.5664 76.5538C78.5666 76.6183 78.554 76.6821 78.5294 76.7417C78.5048 76.8013 78.4687 76.8554 78.4231 76.901ZM78.0757 74.0987H78.067C77.4097 74.101 76.7947 74.3594 76.3346 74.8258L72.1908 79.0098L70.6671 77.4849C70.2029 77.0202 69.5851 76.7652 68.9278 76.7652C68.2712 76.7652 67.6544 77.0202 67.1902 77.4849C66.2325 78.4439 66.2325 80.0023 67.1902 80.9612L70.4596 84.2305C70.9382 84.7091 71.5683 84.9491 72.1983 84.9491C72.521 84.9496 72.8406 84.8863 73.1387 84.763C73.4369 84.6397 73.7078 84.4588 73.9359 84.2305C75.174 82.9912 76.4243 81.7254 77.6324 80.4993C78.3608 79.76 79.089 79.0207 79.8197 78.2842C80.7717 77.3235 80.7666 75.7663 79.8088 74.8137C79.3446 74.353 78.7302 74.0987 78.0757 74.0987ZM60.5011 35.5794C61.3138 35.5794 61.9745 36.2401 61.9745 37.0529C61.9745 37.8644 61.3138 38.5269 60.5011 38.5269C59.6889 38.5269 59.027 37.8645 59.027 37.0529C59.0271 36.2401 59.6889 35.5794 60.5011 35.5794ZM60.5011 40.4916C62.3971 40.4916 63.9398 38.9494 63.9398 37.0529C63.9398 35.1568 62.397 33.6141 60.5011 33.6141C58.6046 33.6141 57.0623 35.157 57.0623 37.0529C57.0623 38.9494 58.6046 40.4916 60.5011 40.4916ZM86.3076 66.523C86.3076 67.0646 85.8683 67.5057 85.3249 67.5057H61.6762C61.1346 67.5057 60.6935 67.0647 60.6935 66.523C60.6935 65.9802 61.1345 65.5403 61.6762 65.5403H85.3249C85.454 65.5402 85.5818 65.5656 85.701 65.615C85.8203 65.6643 85.9287 65.7367 86.0199 65.828C86.1112 65.9192 86.1836 66.0276 86.2329 66.1468C86.2823 66.2661 86.3077 66.3939 86.3076 66.523ZM86.3076 60.8617C86.3077 60.9907 86.2823 61.1185 86.2329 61.2377C86.1835 61.3569 86.1111 61.4653 86.0198 61.5565C85.9286 61.6477 85.8202 61.72 85.701 61.7693C85.5817 61.8186 85.4539 61.8439 85.3249 61.8438H61.6762C61.1346 61.8438 60.6935 61.4045 60.6935 60.8617C60.6935 60.3201 61.1345 59.879 61.6762 59.879H85.3249C85.5855 59.8791 85.8354 59.9826 86.0197 60.1669C86.204 60.3512 86.3075 60.6011 86.3076 60.8617ZM86.3076 55.2015C86.3077 55.3306 86.2823 55.4583 86.2329 55.5776C86.1835 55.6968 86.1111 55.8051 86.0198 55.8963C85.9286 55.9875 85.8202 56.0598 85.701 56.1091C85.5817 56.1584 85.4539 56.1837 85.3249 56.1836H61.6762C61.1346 56.1836 60.6935 55.7443 60.6935 55.2015C60.6935 54.6587 61.1345 54.2188 61.6762 54.2188H85.3249C85.454 54.2188 85.5818 54.2441 85.701 54.2935C85.8203 54.3429 85.9287 54.4152 86.0199 54.5065C86.1112 54.5978 86.1836 54.7061 86.2329 54.8254C86.2823 54.9446 86.3077 55.0725 86.3076 55.2015ZM45.4438 66.772H45.4462C48.9705 66.7733 51.9659 69.1593 52.8144 72.4767H38.0727C38.9213 69.1582 41.9167 66.7731 45.441 66.772H45.4438ZM42.0814 61.4449C42.0814 59.5905 43.5894 58.0825 45.4438 58.0825C47.2982 58.0825 48.8063 59.5905 48.8063 61.4449C48.8063 63.2981 47.2993 64.8063 45.4462 64.8074H45.441C43.5877 64.8061 42.0814 63.2981 42.0814 61.4449ZM54.2277 54.9079H36.6593V70.5594C37.161 69.4026 37.8867 68.3565 38.7947 67.4816C39.7026 66.6067 40.7749 65.9202 41.9495 65.4617C40.8275 64.4843 40.1164 63.0461 40.1164 61.4449C40.1164 58.5074 42.506 56.1177 45.4437 56.1177C48.3812 56.1177 50.7709 58.5073 50.7709 61.4449C50.7709 63.0461 50.06 64.4843 48.9374 65.4617C50.1121 65.92 51.1845 66.6064 52.0925 67.4814C53.0005 68.3564 53.7262 69.4025 54.2277 70.5594V54.9079ZM55.2103 52.9431H35.6767C35.5477 52.943 35.4199 52.9684 35.3007 53.0177C35.1815 53.067 35.0732 53.1393 34.9819 53.2305C34.8906 53.3217 34.8182 53.43 34.7688 53.5492C34.7194 53.6684 34.694 53.7962 34.694 53.9252V73.4594C34.6941 73.7199 34.7977 73.9697 34.982 74.1539C35.1663 74.3381 35.4162 74.4415 35.6767 74.4415H55.2104C55.471 74.4415 55.7209 74.3381 55.9051 74.1539C56.0894 73.9697 56.193 73.7199 56.1931 73.4594V53.9252C56.1931 53.7962 56.1677 53.6684 56.1183 53.5492C56.0688 53.43 55.9964 53.3217 55.9052 53.2305C55.8139 53.1393 55.7056 53.067 55.5863 53.0177C55.4671 52.9684 55.3393 52.943 55.2103 52.9431ZM88.992 79.5577V42.913C88.992 42.7511 88.8545 42.6136 88.6915 42.6136H68.0103V46.439H68.6762C69.219 46.439 69.6583 46.8789 69.6583 47.4217C69.6583 47.9645 69.219 48.4038 68.6762 48.4038H52.327C51.7842 48.4038 51.3443 47.9645 51.3443 47.4217C51.3443 46.8789 51.7842 46.439 52.327 46.439H52.9924V42.6136H32.3108C32.1473 42.6136 32.0097 42.7511 32.0097 42.913V79.5577C32.0097 79.7207 32.1473 79.8582 32.3108 79.8582H62.5751C62.5728 79.7478 62.5699 79.6363 62.5699 79.5247C62.5699 77.1541 63.3294 74.9582 64.6161 73.1657H61.6762C61.1346 73.1657 60.6935 72.7258 60.6935 72.183C60.6935 71.6402 61.1345 71.2003 61.6762 71.2003H66.4254C68.3334 69.5761 70.8046 68.5945 73.5012 68.5945C76.1983 68.5945 78.6688 69.576 80.5776 71.2003H85.325C85.8685 71.2003 86.3077 71.6402 86.3077 72.183C86.3077 72.7258 85.8685 73.1657 85.325 73.1657H82.3863C83.6735 74.9582 84.4325 77.1543 84.4325 79.5247C84.4325 79.6363 84.4301 79.7478 84.4261 79.8582H88.6914C88.8545 79.8584 88.992 79.7207 88.992 79.5577ZM73.5012 88.4907C78.4451 88.4907 82.4677 84.4687 82.4677 79.5247C82.4677 74.5813 78.4451 70.5593 73.5012 70.5593C68.5572 70.5593 64.5353 74.5813 64.5353 79.5247C64.5353 84.4688 68.5572 88.4907 73.5012 88.4907ZM60.5011 31.5084C57.4444 31.5084 54.9577 33.9951 54.9577 37.0529V46.439H66.0456V37.0529C66.0457 33.9951 63.5577 31.5084 60.5011 31.5084ZM88.6914 40.6488H68.0103V37.0529C68.0103 32.9118 64.6421 29.543 60.5011 29.543C56.3611 29.543 52.9924 32.9118 52.9924 37.0529V40.6488H32.3108C31.0616 40.6488 30.0449 41.6644 30.0449 42.913V79.5577C30.0449 80.8074 31.0616 81.823 32.3108 81.823H62.8145C63.8735 86.7502 68.2625 90.4554 73.5013 90.4554C78.7406 90.4554 83.1297 86.7502 84.1881 81.823H88.6917C89.9413 81.823 90.957 80.8074 90.957 79.5577V42.913C90.9567 41.6644 89.9411 40.6488 88.6914 40.6488Z" fill="#242222"/>
</svg>
