<svg width="121" height="120" viewBox="0 0 121 120" fill="none" xmlns="http://www.w3.org/2000/svg">
<circle cx="60.5" cy="60" r="60" fill="#F3E9EB"/>
<mask id="mask0_7186_1445" style="mask-type:luminance" maskUnits="userSpaceOnUse" x="25" y="25" width="71" height="70">
<path d="M25.5 25.0002H95.4998V95H25.5V25.0002Z" fill="white"/>
</mask>
<g mask="url(#mask0_7186_1445)">
<path d="M64.328 93.9746H35.0703C32.0499 93.9746 29.6016 91.5263 29.6016 88.5059V31.4943C29.6016 28.4739 32.0499 26.0256 35.0703 26.0256H64.328C67.3484 26.0256 69.7968 28.4739 69.7968 31.4943V88.5059C69.7968 91.5263 67.3484 93.9746 64.328 93.9746Z" fill="#7B727B"/>
<path d="M64.3281 26.0256H60.2266C63.2469 26.0256 65.6953 28.4739 65.6953 31.4943V88.5059C65.6953 91.5263 63.2469 93.9746 60.2266 93.9746H64.3281C67.3485 93.9746 69.7968 91.5263 69.7968 88.5059V31.4943C69.7968 28.4739 67.3485 26.0256 64.3281 26.0256Z" fill="#686169"/>
<path d="M66.2421 31.4943V88.5059C66.2421 89.563 65.3851 90.4199 64.328 90.4199H35.0703C34.0132 90.4199 33.1562 89.563 33.1562 88.5059V31.4943C33.1562 30.4372 34.0132 29.5803 35.0703 29.5803H40.5533C40.7087 29.5802 40.8604 29.6287 40.9869 29.719C41.1135 29.8093 41.2087 29.9369 41.2593 30.0839L41.9817 32.183C42.0323 32.33 42.1275 32.4575 42.2541 32.5478C42.3806 32.6381 42.5322 32.6866 42.6877 32.6866H56.7106C56.8661 32.6866 57.0177 32.6381 57.1442 32.5478C57.2708 32.4575 57.366 32.33 57.4166 32.183L58.1391 30.0839C58.1896 29.9369 58.2848 29.8093 58.4114 29.719C58.538 29.6287 58.6896 29.5802 58.8451 29.5803H64.328C65.3851 29.5803 66.2421 30.4372 66.2421 31.4943Z" fill="#D6FAEC"/>
<path d="M64.3281 29.5803H60.2266C61.2837 29.5803 62.1406 30.4372 62.1406 31.4943V88.5059C62.1406 89.563 61.2837 90.4199 60.2266 90.4199H64.3281C65.3852 90.4199 66.2422 89.563 66.2422 88.5059V31.4943C66.2422 30.4372 65.3852 29.5803 64.3281 29.5803Z" fill="#CCFAE8"/>
<path d="M55.0312 81.6016H44.3672C42.7815 81.6016 41.4961 80.3161 41.4961 78.7305C41.4961 77.1448 42.7815 75.8594 44.3672 75.8594H55.0312C56.6169 75.8594 57.9023 77.1448 57.9023 78.7305C57.9023 80.3161 56.6169 81.6016 55.0312 81.6016Z" fill="#2FD9E7"/>
<path d="M88.7144 69.707H41.5824C40.1001 69.707 38.8984 68.5054 38.8984 67.0231V39.5785C38.8984 38.0962 40.1001 36.8946 41.5824 36.8946H88.7144C90.1967 36.8946 91.3983 38.0962 91.3983 39.5785V67.0231C91.3983 68.5054 90.1967 69.707 88.7144 69.707Z" fill="#2FD9E7"/>
<path d="M88.7148 36.8946H84.6133C86.0956 36.8946 87.2972 38.0962 87.2972 39.5785V67.0231C87.2972 68.5054 86.0956 69.707 84.6133 69.707H88.7148C90.1971 69.707 91.3987 68.5054 91.3987 67.0231V39.5785C91.3987 38.0962 90.1971 36.8946 88.7148 36.8946Z" fill="#00D0E4"/>
<path d="M54.3476 49.3359H45.8711C45.6535 49.3359 45.4449 49.2495 45.291 49.0957C45.1372 48.9418 45.0508 48.7332 45.0508 48.5156V43.0469C45.0508 42.8293 45.1372 42.6207 45.291 42.4668C45.4449 42.313 45.6535 42.2266 45.8711 42.2266H54.3476C54.5652 42.2266 54.7738 42.313 54.9277 42.4668C55.0815 42.6207 55.1679 42.8293 55.1679 43.0469V48.5156C55.1679 48.7332 55.0815 48.9418 54.9277 49.0957C54.7738 49.2495 54.5652 49.3359 54.3476 49.3359Z" fill="#FFE589"/>
<path d="M50.9297 64.625H38.8984V57.5156H50.9297C52.8928 57.5156 54.4843 59.1072 54.4843 61.0703C54.4843 63.0335 52.8928 64.625 50.9297 64.625Z" fill="#FF6167"/>
<path d="M56.8769 78.7305C56.8769 79.7482 56.0489 80.5762 55.0312 80.5762H44.3672C43.3494 80.5762 42.5215 79.7482 42.5215 78.7305C42.5215 77.7127 43.3494 76.8848 44.3672 76.8848H55.0312C56.0489 76.8848 56.8769 77.7127 56.8769 78.7305ZM44.3672 74.834C42.2186 74.834 40.4707 76.582 40.4707 78.7305C40.4707 80.879 42.2186 82.627 44.3672 82.627H55.0312C57.1797 82.627 58.9277 80.879 58.9277 78.7305C58.9277 76.582 57.1797 74.834 55.0312 74.834H44.3672Z" fill="black"/>
<path d="M50.9296 58.5408C52.3243 58.5408 53.4589 59.6754 53.4589 61.0701C53.4589 62.4647 52.3243 63.5993 50.9296 63.5993H39.9238V58.5408H50.9296ZM88.7143 35.8693H83.4947C83.2228 35.8693 82.9619 35.9773 82.7696 36.1696C82.5773 36.3619 82.4693 36.6228 82.4693 36.8947C82.4693 37.1667 82.5773 37.4275 82.7696 37.6198C82.9619 37.8121 83.2228 37.9201 83.4947 37.9201H88.7143C89.629 37.9201 90.3729 38.664 90.3729 39.5786V67.0232C90.3729 67.9377 89.629 68.6817 88.7143 68.6817H41.5823C40.6677 68.6817 39.9238 67.9377 39.9238 67.0232V65.6501H50.9296C53.4551 65.6501 55.5097 63.5955 55.5097 61.0701C55.5097 58.5446 53.4551 56.49 50.9296 56.49H39.9238V39.5786C39.9238 38.664 40.6677 37.9201 41.5823 37.9201H78.6747C78.9466 37.9201 79.2075 37.8121 79.3998 37.6198C79.5921 37.4275 79.7001 37.1667 79.7001 36.8947C79.7001 36.6228 79.5921 36.3619 79.3998 36.1696C79.2075 35.9773 78.9466 35.8693 78.6747 35.8693H70.8221V31.4943C70.8221 27.9134 67.9088 25.0002 64.328 25.0002H35.0703C31.4895 25.0002 28.5762 27.9134 28.5762 31.4943V37.3785C28.5762 37.6505 28.6842 37.9113 28.8765 38.1036C29.0688 38.2959 29.3296 38.4039 29.6016 38.4039C29.8735 38.4039 30.1343 38.2959 30.3266 38.1036C30.5189 37.9113 30.6269 37.6505 30.6269 37.3785V31.4943C30.6269 29.0442 32.6202 27.051 35.0703 27.051H64.328C66.7781 27.051 68.7714 29.0442 68.7714 31.4943V35.8693H67.2675V31.4943C67.2675 29.8734 65.9488 28.5549 64.328 28.5549H58.8456C58.4766 28.555 58.1168 28.6702 57.8163 28.8844C57.5158 29.0986 57.2896 29.4011 57.1692 29.7499L56.5122 31.6611H42.8861L42.2286 29.7484C42.108 29.4 41.8818 29.0977 41.5814 28.8838C41.281 28.6699 40.9215 28.5549 40.5527 28.5549H35.0703C33.4495 28.5549 32.1308 29.8734 32.1308 31.4943V88.5059C32.1308 90.1267 33.4495 91.4453 35.0703 91.4453H64.328C65.9488 91.4453 67.2675 90.1267 67.2675 88.5059V85.2998C67.2675 84.7334 66.8085 84.2744 66.2421 84.2744C66.1074 84.2744 65.9741 84.3009 65.8497 84.3525C65.7252 84.404 65.6122 84.4795 65.517 84.5747C65.4218 84.67 65.3462 84.783 65.2947 84.9074C65.2432 85.0318 65.2167 85.1652 65.2167 85.2998V88.5059C65.2167 88.9959 64.818 89.3945 64.328 89.3945H35.0703C34.8347 89.3943 34.6088 89.3005 34.4422 89.1339C34.2756 88.9673 34.1819 88.7415 34.1816 88.5059V31.4943C34.1816 31.0043 34.5803 30.6057 35.0703 30.6057H40.3547L41.0122 32.5181C41.1327 32.8666 41.359 33.169 41.6594 33.3829C41.9598 33.5969 42.3194 33.7119 42.6882 33.7119H56.7101C57.4661 33.7119 58.1396 33.2322 58.3867 32.5167L59.0436 30.6057H64.328C64.818 30.6057 65.2167 31.0043 65.2167 31.4943V35.8693H41.5823C39.537 35.8693 37.873 37.5333 37.873 39.5786V67.0232C37.873 69.0685 39.537 70.7325 41.5823 70.7325H65.2167V80.5178C65.2167 81.0843 65.6757 81.5432 66.2421 81.5432C66.8085 81.5432 67.2675 81.0843 67.2675 80.5178V70.7325H68.7714V88.5059C68.7714 90.956 66.7781 92.9492 64.328 92.9492H35.0703C32.6202 92.9492 30.6269 90.956 30.6269 88.5059V42.2267C30.6269 41.6603 30.168 41.2013 29.6016 41.2013C29.4669 41.2013 29.3336 41.2278 29.2091 41.2793C29.0847 41.3309 28.9717 41.4064 28.8765 41.5016C28.7812 41.5968 28.7057 41.7099 28.6542 41.8343C28.6027 41.9587 28.5762 42.0921 28.5762 42.2267V88.5059C28.5762 92.0867 31.4895 95 35.0703 95H64.328C67.9088 95 70.8221 92.0867 70.8221 88.5059V70.7325H88.7143C90.7596 70.7325 92.4236 69.0685 92.4236 67.0232V39.5786C92.4236 37.5333 90.7596 35.8693 88.7143 35.8693Z" fill="black"/>
<path d="M76.4617 59.6821L77.3577 62.0563H75.5574L76.4617 59.6821ZM72.9651 65.9816C73.0909 66.0296 73.225 66.0523 73.3596 66.0484C73.4942 66.0445 73.6267 66.0142 73.7496 65.9591C73.8725 65.904 73.9833 65.8253 74.0758 65.7274C74.1682 65.6294 74.2405 65.5143 74.2884 65.3884L74.7763 64.1071H78.1315L78.614 65.3855C78.7101 65.6399 78.9033 65.8457 79.1511 65.9577C79.3989 66.0697 79.681 66.0787 79.9354 65.9827C80.0614 65.9352 80.1768 65.8633 80.275 65.7712C80.3732 65.679 80.4522 65.5684 80.5077 65.4457C80.5632 65.323 80.5939 65.1906 80.5982 65.056C80.6024 64.9214 80.5802 64.7873 80.5326 64.6614L77.5904 56.8647C77.5038 56.6366 77.3497 56.4403 77.1487 56.3019C76.9477 56.1636 76.7094 56.0898 76.4654 56.0903H76.4639C76.2206 56.0901 75.9829 56.1637 75.7825 56.3016C75.582 56.4394 75.4281 56.6349 75.3413 56.8621L72.3719 64.6583C72.3239 64.7842 72.3012 64.9182 72.3051 65.0528C72.309 65.1875 72.3393 65.32 72.3944 65.4429C72.4495 65.5657 72.5282 65.6766 72.6262 65.769C72.7241 65.8615 72.8393 65.9337 72.9651 65.9816Z" fill="black"/>
<path d="M82.3299 61.2883L82.3207 65.021C82.3204 65.1556 82.3466 65.289 82.3978 65.4136C82.449 65.5381 82.5243 65.6513 82.6192 65.7468C82.7142 65.8422 82.8271 65.918 82.9513 65.9698C83.0756 66.0217 83.2089 66.0485 83.3435 66.0488H83.3461C83.6176 66.0488 83.878 65.9412 84.0703 65.7494C84.2625 65.5577 84.3708 65.2975 84.3715 65.026L84.3807 61.2897L86.7203 57.6953C86.7938 57.5825 86.8443 57.4563 86.869 57.3239C86.8937 57.1916 86.8921 57.0556 86.8643 56.9239C86.8364 56.7921 86.7829 56.6672 86.7068 56.5561C86.6306 56.445 86.5334 56.3501 86.4205 56.2766C86.3077 56.2031 86.1815 56.1525 86.0491 56.1278C85.9167 56.103 85.7808 56.1046 85.649 56.1325C85.5172 56.1603 85.3923 56.2139 85.2812 56.29C85.1702 56.3662 85.0752 56.4635 85.0018 56.5764L83.3546 59.1067L81.6888 56.5552C81.5401 56.3275 81.3071 56.1682 81.0409 56.1123C80.7747 56.0564 80.4973 56.1085 80.2695 56.2572C80.0418 56.4059 79.8825 56.6389 79.8266 56.9051C79.7707 57.1713 79.8228 57.4487 79.9715 57.6765L82.3299 61.2883Z" fill="black"/>
<path d="M69.7994 58.1412C70.4768 58.1412 71.0493 58.6935 71.0493 59.3473C71.0493 60.0011 70.4768 60.5536 69.7994 60.5536C69.5269 60.5536 69.0634 60.5553 68.6328 60.5577C68.6304 60.1116 68.6285 59.6276 68.6285 59.3473C68.6285 59.1094 68.6273 58.6086 68.6261 58.1412H69.7994ZM66.5723 65.0234C66.5723 65.2954 66.6803 65.5562 66.8726 65.7485C67.0649 65.9408 67.3257 66.0488 67.5977 66.0488C67.8696 66.0488 68.1304 65.9408 68.3227 65.7485C68.515 65.5562 68.623 65.2954 68.623 65.0234V62.6084C69.056 62.6063 69.525 62.6043 69.7994 62.6043C71.6194 62.6043 73.1 61.1432 73.1 59.3473C73.1 57.5515 71.6194 56.0904 69.7994 56.0904H67.5977C67.4627 56.0904 67.3291 56.117 67.2045 56.1687C67.0799 56.2204 66.9667 56.2962 66.8714 56.3918C66.7761 56.4873 66.7007 56.6007 66.6493 56.7255C66.598 56.8503 66.5718 56.984 66.5723 57.1189C66.5723 57.1189 66.574 57.697 66.5756 58.2817C66.574 58.3041 66.5723 58.3263 66.5723 58.349V65.0234Z" fill="black"/>
<path d="M54.1425 48.3106H46.0762V43.252H54.1425V48.3106ZM45.8711 41.2012C44.8534 41.2012 44.0254 42.0292 44.0254 43.0469V48.5156C44.0254 49.5334 44.8534 50.3613 45.8711 50.3613H54.3476C55.3654 50.3613 56.1933 49.5334 56.1933 48.5156V43.0469C56.1933 42.0292 55.3654 41.2012 54.3476 41.2012H45.8711Z" fill="black"/>
<path d="M62.9473 44.6973V46.3379C62.9473 46.9043 63.4062 47.3633 63.9727 47.3633C64.5391 47.3633 64.998 46.9043 64.998 46.3379V44.6973C64.998 44.1308 64.5391 43.6719 63.9727 43.6719C63.838 43.6719 63.7046 43.6984 63.5802 43.7499C63.4558 43.8014 63.3428 43.877 63.2476 43.9722C63.1523 44.0674 63.0768 44.1804 63.0253 44.3049C62.9738 44.4293 62.9472 44.5626 62.9473 44.6973Z" fill="black"/>
<path d="M80.8848 47.3633C81.4512 47.3633 81.9102 46.9043 81.9102 46.3379V44.6973C81.9102 44.1308 81.4512 43.6719 80.8848 43.6719C80.7501 43.6719 80.6168 43.6984 80.4923 43.7499C80.3679 43.8014 80.2549 43.877 80.1597 43.9722C80.0644 44.0674 79.9889 44.1804 79.9374 44.3049C79.8859 44.4293 79.8594 44.5626 79.8594 44.6973V46.3379C79.8594 46.9043 80.3183 47.3633 80.8848 47.3633Z" fill="black"/>
<path d="M85.5664 46.3379V44.6973C85.5664 44.1308 85.1074 43.6719 84.541 43.6719C84.4064 43.6719 84.273 43.6984 84.1486 43.7499C84.0242 43.8014 83.9111 43.877 83.8159 43.9722C83.7207 44.0674 83.6452 44.1804 83.5936 44.3049C83.5421 44.4293 83.5156 44.5626 83.5156 44.6973V46.3379C83.5156 46.9043 83.9746 47.3633 84.541 47.3633C85.1074 47.3633 85.5664 46.9043 85.5664 46.3379Z" fill="black"/>
<path d="M70.3066 46.3379V44.6973C70.3066 44.1308 69.8477 43.6719 69.2812 43.6719C69.1466 43.6719 69.0132 43.6984 68.8888 43.7499C68.7644 43.8014 68.6514 43.877 68.5561 43.9722C68.4609 44.0674 68.3854 44.1804 68.3339 44.3049C68.2824 44.4293 68.2558 44.5626 68.2559 44.6973V46.3379C68.2559 46.9043 68.7148 47.3633 69.2812 47.3633C69.8477 47.3633 70.3066 46.9043 70.3066 46.3379Z" fill="black"/>
<path d="M73.1543 47.3633C73.7207 47.3633 74.1797 46.9043 74.1797 46.3379V44.6973C74.1797 44.1308 73.7207 43.6719 73.1543 43.6719C73.0196 43.6719 72.8863 43.6984 72.7619 43.7499C72.6375 43.8014 72.5244 43.877 72.4292 43.9722C72.334 44.0674 72.2584 44.1804 72.2069 44.3049C72.1554 44.4293 72.1289 44.5626 72.1289 44.6973V46.3379C72.1289 46.9043 72.5879 47.3633 73.1543 47.3633Z" fill="black"/>
</g>
</svg>
