<svg width="121" height="120" viewBox="0 0 121 120" fill="none" xmlns="http://www.w3.org/2000/svg">
<circle cx="60.5" cy="60" r="60" fill="#F3E9EB"/>
<path d="M87.7874 41.8131L75.1526 60.4746V81.9715C75.1526 85.5661 72.246 88.4727 68.6632 88.4727H59.1367V31.5273H68.6632C72.246 31.5273 75.1526 34.4339 75.1526 38.0286V44.8027L80.515 36.8897C80.7151 36.5928 80.9721 36.3383 81.271 36.1411C81.5699 35.9438 81.9049 35.8077 82.2566 35.7404C82.6084 35.6731 82.97 35.6761 83.3206 35.7492C83.6712 35.8222 84.0038 35.9639 84.2995 36.166L87.0518 38.0286C87.6507 38.4334 88.0645 39.0592 88.2024 39.7687C88.3403 40.4782 88.191 41.2135 87.7874 41.8131Z" fill="black"/>
<path d="M68.6615 89.0653H59.1361C58.9788 89.0653 58.828 89.0028 58.7167 88.8916C58.6055 88.7804 58.543 88.6295 58.543 88.4722V31.5268C58.543 31.3695 58.6055 31.2186 58.7167 31.1073C58.828 30.9961 58.9788 30.9336 59.1361 30.9336H68.6626C72.5681 30.9336 75.7452 34.1166 75.7452 38.028V42.8684L80.0232 36.557C80.2673 36.1937 80.5814 35.8827 80.947 35.6421C81.3126 35.4015 81.7225 35.2362 82.1528 35.1559C82.5802 35.0736 83.0198 35.0771 83.4459 35.1664C83.872 35.2556 84.2761 35.4286 84.6346 35.6755L87.3834 37.5357C88.1123 38.029 88.6158 38.7913 88.7835 39.6553C88.9512 40.5193 88.7694 41.4146 88.278 42.1447L75.7452 60.6555V81.9709C75.7452 85.8823 72.567 89.0653 68.6615 89.0653ZM59.7293 87.879H68.6626C71.9133 87.879 74.5589 85.2286 74.5589 81.9709V60.474C74.5589 60.3556 74.5945 60.2399 74.6609 60.1418L87.2956 41.4804C87.9529 40.5075 87.6943 39.1788 86.7191 38.5192L83.9667 36.6566C83.7371 36.4973 83.478 36.3855 83.2046 36.3279C82.9312 36.2702 82.649 36.2678 82.3746 36.3209C81.8123 36.4276 81.3271 36.748 81.0056 37.2213L75.6432 45.1343C75.572 45.2394 75.469 45.3189 75.3494 45.3611C75.2297 45.4033 75.0996 45.4061 74.9783 45.3689C74.8569 45.3317 74.7507 45.2566 74.6752 45.1546C74.5997 45.0526 74.559 44.9291 74.5589 44.8022V38.028C74.5589 36.4632 73.938 34.9622 72.8326 33.8546C71.7272 32.7469 70.2275 32.1231 68.6626 32.12H59.7293V87.879Z" fill="black"/>
<path d="M71.5895 38.0286V81.9715C71.5895 85.5661 68.683 88.4727 65.1001 88.4727H39.2374C35.6546 88.4727 32.748 85.5661 32.748 81.9715V38.0286C32.748 34.4339 35.6546 31.5273 39.2374 31.5273H65.1001C68.683 31.5273 71.5895 34.4339 71.5895 38.0286Z" fill="white"/>
<path d="M65.0996 89.0653H39.2369C35.3314 89.0653 32.1543 85.8823 32.1543 81.9709V38.028C32.1543 34.1154 35.3314 30.9336 39.2369 30.9336H65.0996C69.0051 30.9336 72.1822 34.1166 72.1822 38.028V81.9709C72.1822 85.8823 69.0051 89.0653 65.0996 89.0653ZM39.2369 32.12C37.672 32.1231 36.1723 32.7469 35.0669 33.8546C33.9615 34.9622 33.3407 36.4632 33.3407 38.028V81.9709C33.3407 85.2286 35.9862 87.879 39.2369 87.879H65.0996C68.3502 87.879 70.9958 85.2286 70.9958 81.9709V38.028C70.9958 36.4632 70.375 34.9622 69.2696 33.8546C68.1641 32.7469 66.6644 32.1231 65.0996 32.12H39.2369Z" fill="black"/>
<path d="M66.8467 73.8329V75.1083C66.8467 76.0336 66.0993 76.781 65.1739 76.781H39.157C38.2435 76.781 37.4961 76.0336 37.4961 75.1083V73.8329C37.4961 72.9076 38.2435 72.1602 39.157 72.1602H65.1739C66.0993 72.1602 66.8467 72.9076 66.8467 73.8329Z" fill="#DDDDDD"/>
<path d="M65.1734 77.3736H39.1564C37.9131 77.3736 36.9023 76.3569 36.9023 75.1077V73.8312C36.9023 72.5819 37.9131 71.5664 39.1564 71.5664H65.1734C66.4226 71.5664 67.4393 72.5819 67.4393 73.8324V75.1065C67.4393 76.3569 66.4226 77.3736 65.1734 77.3736ZM39.1564 72.7528C38.5668 72.7528 38.0887 73.2368 38.0887 73.8324V75.1065C38.0887 75.7021 38.5668 76.1861 39.1564 76.1861H65.1734C65.7677 76.1861 66.2529 75.7021 66.2529 75.1065V73.8324C66.2526 73.5462 66.1387 73.2719 65.9363 73.0697C65.7339 72.8675 65.4595 72.754 65.1734 72.754L39.1564 72.7528Z" fill="black"/>
<path d="M49.6812 64.1669V66.7176C49.6812 67.643 48.9338 68.3904 48.0084 68.3904H39.157C38.2435 68.3904 37.4961 67.643 37.4961 66.7176V64.1669C37.4961 63.2415 38.2435 62.4941 39.157 62.4941H48.0084C48.9338 62.4941 49.6812 63.2415 49.6812 64.1669Z" fill="#5AE4A7"/>
<path d="M48.0079 68.983H39.1564C37.9131 68.983 36.9023 67.9674 36.9023 66.717V64.1663C36.9023 62.9171 37.9131 61.9004 39.1564 61.9004H48.0091C49.2583 61.9004 50.275 62.9171 50.275 64.1663V66.717C50.275 67.9674 49.2571 68.983 48.0079 68.983ZM39.1552 63.0868C38.5668 63.0868 38.0875 63.572 38.0875 64.1663V66.717C38.0875 67.3126 38.5668 67.7966 39.1552 67.7966H48.0079C48.6034 67.7966 49.0875 67.3126 49.0875 66.717V64.1663C49.0875 63.88 48.9737 63.6054 48.7713 63.403C48.5688 63.2005 48.2942 63.0868 48.0079 63.0868H39.1552Z" fill="black"/>
<path d="M66.8465 64.1669V66.7176C66.8465 67.643 66.0991 68.3904 65.1737 68.3904H56.3211C55.4076 68.3904 54.6602 67.643 54.6602 66.7176V64.1669C54.6602 63.2415 55.4076 62.4941 56.3211 62.4941H65.1737C66.0991 62.4941 66.8465 63.2415 66.8465 64.1669Z" fill="#5AE4A7"/>
<path d="M65.1751 68.983H56.3224C55.0791 68.983 54.0684 67.9674 54.0684 66.717V64.1663C54.0684 62.9171 55.0791 61.9004 56.3224 61.9004H65.1751C66.4243 61.9004 67.441 62.9171 67.441 64.1663V66.717C67.441 67.9674 66.4243 68.983 65.1751 68.983ZM56.3224 63.0868C55.734 63.0868 55.2547 63.572 55.2547 64.1663V66.717C55.2547 67.3126 55.734 67.7966 56.3224 67.7966H65.1751C65.7695 67.7966 66.2547 67.3126 66.2547 66.717V64.1663C66.2547 63.88 66.1409 63.6054 65.9385 63.403C65.736 63.2005 65.4614 63.0868 65.1751 63.0868H56.3224Z" fill="black"/>
<path d="M71.5775 37.7083H60.6393C59.8444 37.7083 59.1089 38.171 58.7648 38.8828L58.231 39.998C57.8869 40.7098 57.1514 41.1725 56.3565 41.1725H47.9808C47.1859 41.1725 46.4504 40.7098 46.1063 39.998L45.5725 38.8828C45.2284 38.171 44.4929 37.7083 43.698 37.7083H32.7598C32.9259 34.2678 35.7613 31.5273 39.2373 31.5273H65.1C68.576 31.5273 71.4114 34.2678 71.5775 37.7083Z" fill="#283E42"/>
<path d="M56.3568 41.7651H47.9811C46.9608 41.7651 46.0165 41.1719 45.5728 40.2548L45.0389 39.1385C44.9161 38.8875 44.7253 38.676 44.4884 38.528C44.2514 38.3799 43.9777 38.3013 43.6983 38.3009H32.7601C32.6796 38.3015 32.5998 38.2856 32.5257 38.2542C32.4515 38.2228 32.3846 38.1766 32.3291 38.1183C32.2735 38.0601 32.2304 37.9911 32.2025 37.9156C32.1746 37.8401 32.1625 37.7596 32.1669 37.6792C32.2517 35.8611 33.034 34.1455 34.351 32.8892C35.6681 31.6329 37.4186 30.9325 39.2388 30.9336H65.1015C66.9215 30.9325 68.6719 31.633 69.9888 32.8893C71.3057 34.1457 72.0877 35.8612 72.1722 37.6792C72.1761 37.7595 72.1636 37.8397 72.1355 37.915C72.1074 37.9903 72.0643 38.0591 72.0089 38.1172C71.9534 38.1754 71.8867 38.2216 71.8128 38.2532C71.7389 38.2848 71.6594 38.301 71.579 38.3009H60.6408C60.3611 38.3015 60.0872 38.3805 59.8502 38.529C59.6133 38.6775 59.4227 38.8895 59.3002 39.1408L58.7663 40.2525C58.5464 40.7045 58.2041 41.0858 57.7784 41.3531C57.3528 41.6205 56.8595 41.7632 56.3568 41.7651ZM33.4161 37.1145H43.6983C44.7186 37.1145 45.6641 37.7077 46.1066 38.6236L46.6405 39.7411C46.8873 40.2501 47.414 40.5787 47.9811 40.5787H56.3568C56.6365 40.5781 56.9103 40.4991 57.1473 40.3506C57.3843 40.2021 57.5749 39.9902 57.6974 39.7388L58.2313 38.626C58.4514 38.1742 58.7937 37.7931 59.2194 37.526C59.645 37.2588 60.137 37.1163 60.6396 37.1145H70.923C70.7097 35.7235 70.0051 34.4548 68.9369 33.5386C67.8687 32.6223 66.5076 32.119 65.1003 32.12H39.2376C37.8305 32.1195 36.4699 32.623 35.402 33.5392C34.3341 34.4554 33.6296 35.7238 33.4161 37.1145Z" fill="black"/>
<path d="M32.748 80.8125V81.9716C32.748 85.5663 35.6546 88.4728 39.2374 88.4728H65.1001C68.683 88.4728 71.5895 85.5663 71.5895 81.9716V80.8125H32.748Z" fill="#283E42"/>
<path d="M65.0996 89.0653H39.2369C35.3314 89.0653 32.1543 85.8823 32.1543 81.9708V80.8118C32.1543 80.6544 32.2168 80.5036 32.328 80.3923C32.4393 80.2811 32.5902 80.2186 32.7475 80.2186H71.589C71.7463 80.2186 71.8972 80.2811 72.0084 80.3923C72.1197 80.5036 72.1822 80.6544 72.1822 80.8118V81.9708C72.1822 85.8823 69.0051 89.0653 65.0996 89.0653ZM33.3407 81.4049V81.9708C33.3407 85.2286 35.9862 87.8789 39.2369 87.8789H65.0996C68.3502 87.8789 70.9958 85.2286 70.9958 81.9708V81.4049H33.3407ZM58.0917 35.4832H50.9332C50.7759 35.4832 50.625 35.4207 50.5138 35.3095C50.4025 35.1983 50.34 35.0474 50.34 34.8901C50.34 34.7327 50.4025 34.5819 50.5138 34.4706C50.625 34.3594 50.7759 34.2969 50.9332 34.2969H58.0917C58.2491 34.2969 58.3999 34.3594 58.5112 34.4706C58.6224 34.5819 58.6849 34.7327 58.6849 34.8901C58.6849 35.0474 58.6224 35.1983 58.5112 35.3095C58.3999 35.4207 58.2491 35.4832 58.0917 35.4832ZM48.5605 35.4832H46.2447C46.0874 35.4832 45.9365 35.4207 45.8253 35.3095C45.714 35.1983 45.6515 35.0474 45.6515 34.8901C45.6515 34.7327 45.714 34.5819 45.8253 34.4706C45.9365 34.3594 46.0874 34.2969 46.2447 34.2969H48.5605C48.7178 34.2969 48.8687 34.3594 48.9799 34.4706C49.0912 34.5819 49.1537 34.7327 49.1537 34.8901C49.1537 35.0474 49.0912 35.1983 48.9799 35.3095C48.8687 35.4207 48.7178 35.4832 48.5605 35.4832Z" fill="black"/>
<path d="M56.4189 85.2352H47.9174C47.7601 85.2352 47.6092 85.1727 47.498 85.0615C47.3867 84.9502 47.3242 84.7993 47.3242 84.642C47.3242 84.4847 47.3867 84.3338 47.498 84.2226C47.6092 84.1113 47.7601 84.0488 47.9174 84.0488H56.4201C56.5774 84.0488 56.7283 84.1113 56.8395 84.2226C56.9507 84.3338 57.0132 84.4847 57.0132 84.642C57.0132 84.7993 56.9507 84.9502 56.8395 85.0615C56.7283 85.1727 56.5774 85.2352 56.4201 85.2352H56.4189Z" fill="black"/>
<path d="M60.4203 51.7492C60.4203 53.5287 59.8556 55.1671 58.9017 56.5124C58.1407 57.5903 57.132 58.4697 55.9604 59.0767C54.7888 59.6837 53.4886 60.0005 52.1691 60.0005C50.8496 60.0005 49.5495 59.6837 48.3779 59.0767C47.2063 58.4697 46.1976 57.5903 45.4365 56.5124C44.4466 55.1216 43.9157 53.4564 43.918 51.7492C43.918 47.1936 47.6147 43.498 52.1691 43.498C56.7236 43.498 60.4203 47.1948 60.4203 51.7492Z" fill="#DDDDDD"/>
<path d="M52.1674 60.5918C50.7534 60.5901 49.3604 60.2499 48.1049 59.5995C46.8493 58.9491 45.7678 58.0076 44.9507 56.8535C43.8894 55.3628 43.3207 53.5774 43.3242 51.7474C43.3242 46.8715 47.2914 42.9043 52.1674 42.9043C57.0433 42.9043 61.0117 46.8715 61.0117 51.7474C61.0117 53.5887 60.4482 55.354 59.384 56.8547C58.5668 58.0085 57.4853 58.9499 56.2297 59.6C54.9742 60.2502 53.5813 60.5902 52.1674 60.5918ZM52.1674 44.0895C50.1372 44.092 48.191 44.8996 46.7556 46.3353C45.3202 47.7709 44.5128 49.7173 44.5106 51.7474C44.5106 53.3419 44.997 54.8699 45.9188 56.1666C47.3543 58.1953 49.6903 59.4054 52.1674 59.4054C54.6445 59.4054 56.9805 58.1953 58.4159 56.1666C59.3356 54.8768 59.8284 53.3315 59.8253 51.7474C59.8228 49.7173 59.0152 47.771 57.5795 46.3356C56.1439 44.9002 54.1975 44.0917 52.1674 44.0895Z" fill="black"/>
<path d="M58.9008 56.5121C58.1397 57.5899 57.131 58.4693 55.9594 59.0763C54.7878 59.6833 53.4876 60.0001 52.1682 60.0001C50.8487 60.0001 49.5485 59.6833 48.3769 59.0763C47.2053 58.4693 46.1966 57.5899 45.4355 56.5121C46.2729 55.0734 47.5506 53.9421 49.0801 53.2852C49.4145 53.7995 49.8722 54.222 50.4115 54.5144C50.9508 54.8067 51.5547 54.9596 52.1682 54.9591C52.7822 54.9619 53.3871 54.8099 53.927 54.5174C54.4669 54.2248 54.9244 53.8011 55.2574 53.2852C56.7864 53.9423 58.0637 55.0736 58.9008 56.5121Z" fill="#FFDDAB"/>
<path d="M52.1677 60.5931C50.7537 60.5915 49.3607 60.2512 48.1051 59.6009C46.8496 58.9505 45.7681 58.0089 44.951 56.8549C44.8851 56.762 44.8474 56.652 44.8424 56.5382C44.8373 56.4244 44.8652 56.3115 44.9226 56.2131C45.8268 54.6675 47.2009 53.451 48.8447 52.7406C48.9725 52.6848 49.1159 52.6762 49.2494 52.7161C49.383 52.7561 49.4981 52.8421 49.5743 52.9589C49.8558 53.3903 50.2402 53.7448 50.693 53.9904C51.1458 54.2361 51.6526 54.3651 52.1677 54.3659C53.2188 54.3659 54.188 53.8415 54.7587 52.9613C54.8349 52.8439 54.9503 52.7573 55.0843 52.7169C55.2183 52.6765 55.3623 52.6849 55.4907 52.7406C57.1344 53.451 58.5085 54.6675 59.4128 56.2131C59.4699 56.3114 59.4976 56.424 59.4926 56.5376C59.4875 56.6512 59.4499 56.7609 59.3843 56.8537C58.5674 58.008 57.4859 58.9498 56.2304 59.6003C54.9748 60.2509 53.5817 60.5913 52.1677 60.5931ZM46.1528 56.48C47.6002 58.3201 49.8199 59.4068 52.1677 59.4068C54.5155 59.4068 56.7352 58.3201 58.1825 56.48C57.496 55.4402 56.5524 54.5955 55.4432 54.0278C55.0425 54.5063 54.5415 54.8909 53.9756 55.1543C53.4098 55.4178 52.793 55.5536 52.1689 55.5523C51.5448 55.5524 50.9283 55.4159 50.3626 55.1523C49.7969 54.8888 49.2958 54.5045 48.8945 54.0266C47.7844 54.5948 46.8408 55.4398 46.1528 56.48Z" fill="black"/>
<path d="M55.8456 49.6742V51.2817C55.8469 51.9922 55.643 52.688 55.2584 53.2855C54.5964 54.2951 53.467 54.957 52.1714 54.957C50.8759 54.957 49.7453 54.2951 49.0845 53.2843C48.6997 52.6873 48.4954 51.9919 48.4961 51.2817V49.6742C48.4961 49.1915 48.5912 48.7135 48.776 48.2676C48.9608 47.8217 49.2316 47.4165 49.5731 47.0753C49.9145 46.7341 50.3198 46.4635 50.7659 46.279C51.2119 46.0945 51.6899 45.9997 52.1726 46C52.6554 45.9989 53.1337 46.0932 53.58 46.2775C54.0262 46.4617 54.4317 46.7323 54.7731 47.0737C55.1145 47.4151 55.3851 47.8206 55.5693 48.2668C55.7536 48.7131 55.8467 49.1914 55.8456 49.6742Z" fill="#FFDDAB"/>
<path d="M52.1709 55.5508C51.4593 55.5514 50.7588 55.3742 50.1331 55.0352C49.5074 54.6963 48.9763 54.2063 48.5881 53.6099C48.1399 52.9164 47.9017 52.1081 47.9023 51.2823V49.6748C47.9036 48.5431 48.3537 47.4581 49.154 46.6579C49.9542 45.8576 51.0392 45.4075 52.1709 45.4062C53.3122 45.4062 54.3846 45.8499 55.1902 46.6555C55.9893 47.4571 56.4381 48.5428 56.4382 49.6748V51.2823C56.4382 52.1116 56.2021 52.9147 55.7561 53.6076C55.3677 54.2046 54.8364 54.6951 54.2102 55.0345C53.5841 55.3738 52.8831 55.5513 52.1709 55.5508ZM52.1709 46.5938C51.3538 46.5944 50.5704 46.9192 49.9926 47.4968C49.4147 48.0744 49.0897 48.8577 49.0887 49.6748V51.2823C49.0887 51.8826 49.2595 52.4639 49.5822 52.9634C49.863 53.3944 50.2469 53.7484 50.6992 53.9934C51.1515 54.2384 51.6577 54.3666 52.1721 54.3664C52.6865 54.3661 53.1926 54.2375 53.6447 53.9921C54.0967 53.7466 54.4803 53.3922 54.7607 52.961C55.081 52.4639 55.2519 51.8826 55.2519 51.2823V49.6748C55.2519 48.8574 54.9315 48.0827 54.349 47.4919C54.0635 47.2054 53.7239 46.9784 53.35 46.824C52.9762 46.6697 52.5754 46.5922 52.1709 46.5938Z" fill="black"/>
<path d="M55.828 49.5072C55.7881 48.5936 55.4111 47.7271 54.7698 47.0752C54.2669 46.571 53.6281 46.2241 52.9313 46.0771C52.2346 45.93 51.5101 45.9891 50.8463 46.247C50.1826 46.505 49.6083 46.9506 49.1937 47.5296C48.7792 48.1086 48.5422 48.7957 48.5117 49.5072H55.828Z" fill="#283E42"/>
<path d="M55.8288 50.1007H48.5137C48.4335 50.1008 48.3542 50.0846 48.2805 50.0532C48.2068 50.0217 48.1402 49.9757 48.0847 49.9178C48.0293 49.8599 47.9862 49.7914 47.9579 49.7164C47.9297 49.6414 47.917 49.5615 47.9205 49.4814C47.967 48.3851 48.4351 47.3492 49.2272 46.5899C50.0192 45.8305 51.074 45.4065 52.1712 45.4062C53.3125 45.4062 54.385 45.8499 55.1905 46.6555C55.9358 47.4121 56.3745 48.418 56.422 49.479C56.426 49.5593 56.4136 49.6396 56.3856 49.715C56.3576 49.7903 56.3145 49.8592 56.259 49.9174C56.2035 49.9755 56.1367 50.0218 56.0628 50.0533C55.9888 50.0848 55.9092 50.1009 55.8288 50.1007ZM49.197 48.9143H55.1454C55.0124 48.3774 54.7375 47.8861 54.3494 47.4919C54.0638 47.2054 53.7243 46.9784 53.3504 46.824C52.9765 46.6697 52.5757 46.591 52.1712 46.5926C51.4876 46.5926 50.8235 46.821 50.2846 47.2417C49.7457 47.6624 49.3629 48.2511 49.197 48.9143Z" fill="black"/>
<path d="M84.2245 41.8073L69.4661 63.6008L62.1973 58.6774L76.9556 36.8839C77.3624 36.2864 77.9897 35.8748 78.6998 35.7396C79.4098 35.6043 80.1445 35.7565 80.7425 36.1626L83.4972 38.0287C84.0938 38.4341 84.5054 39.0594 84.6417 39.7677C84.778 40.476 84.628 41.2094 84.2245 41.8073Z" fill="#5AE4A7"/>
<path d="M69.4647 64.1929C69.3462 64.1932 69.2303 64.1577 69.1325 64.0909L61.8625 59.1675C61.7329 59.0787 61.6437 58.9424 61.6142 58.7882C61.5846 58.6341 61.6171 58.4744 61.7047 58.3441L76.463 36.5518C76.9584 35.8247 77.7219 35.3236 78.5861 35.1586C79.4504 34.9936 80.3448 35.178 81.0732 35.6716L83.8291 37.5365C84.1901 37.7799 84.4992 38.0925 84.7384 38.4563C84.9777 38.82 85.1425 39.2275 85.2231 39.6554C85.3068 40.0825 85.3049 40.522 85.2175 40.9485C85.1302 41.3749 84.9591 41.7797 84.7142 42.1396L69.9558 63.9331C69.9015 64.0134 69.8284 64.0792 69.7427 64.1247C69.6571 64.1702 69.5616 64.1928 69.4647 64.1929ZM63.0192 58.5185L69.3069 62.7764L83.733 41.4752C84.0498 41.0054 84.1661 40.4395 84.0581 39.8796C83.9501 39.3196 83.6334 38.8368 83.1636 38.52L80.4089 36.6539C79.9409 36.3362 79.3661 36.2172 78.8106 36.3228C78.255 36.4285 77.764 36.7502 77.4453 37.2174L63.0192 58.5185Z" fill="black"/>
<path d="M82.6978 44.0634L84.2246 41.8069C84.6281 41.2091 84.7782 40.4756 84.6419 39.7673C84.5055 39.0591 84.094 38.4337 83.4974 38.0283L80.7426 36.1622C80.1445 35.7562 79.4097 35.6043 78.6997 35.7397C77.9896 35.8752 77.3624 36.287 76.9558 36.8847L75.4277 39.14L82.6978 44.0634Z" fill="#283E42"/>
<path d="M82.6959 44.6559C82.5774 44.6562 82.4616 44.6207 82.3638 44.5538L75.0937 39.6316C74.964 39.5431 74.8746 39.4069 74.8448 39.2527C74.815 39.0985 74.8473 38.9388 74.9348 38.8083L76.4628 36.5518C76.9581 35.8247 77.7217 35.3236 78.5859 35.1586C79.4502 34.9936 80.3446 35.178 81.073 35.6716L83.8289 37.5365C84.1899 37.7799 84.4989 38.0925 84.7382 38.4563C84.9775 38.82 85.1422 39.2275 85.2229 39.6554C85.3066 40.0825 85.3047 40.522 85.2173 40.9485C85.1299 41.3749 84.9589 41.7797 84.7139 42.1396L83.1871 44.3961C83.1327 44.4766 83.0593 44.5425 82.9735 44.588C82.8876 44.6335 82.7919 44.6572 82.6948 44.6571L82.6959 44.6559ZM76.2493 38.9815L82.537 43.2394L83.7316 41.4752C84.0496 41.0054 84.1658 40.4395 84.0579 39.8796C83.9499 39.3196 83.6332 38.8368 83.1634 38.52L80.4086 36.6539C79.9407 36.3362 79.3659 36.2172 78.8103 36.3228C78.2548 36.4285 77.7638 36.7502 77.4451 37.2174L76.2493 38.9815Z" fill="black"/>
<path d="M69.4644 63.5992L65.4083 65.3704L63.5575 66.1831C63.3851 66.2561 63.1971 66.2848 63.0107 66.2667C62.8243 66.2485 62.6453 66.184 62.4902 66.0791C62.3351 65.9742 62.2086 65.8321 62.1223 65.6659C62.0361 65.4997 61.9928 65.3145 61.9963 65.1272L62.0556 63.0997L62.1956 58.6758L69.4644 63.5992Z" fill="#FFDDAB"/>
<path d="M63.1179 66.8656C62.8895 66.8659 62.6634 66.8206 62.4528 66.7322C62.2422 66.6438 62.0514 66.5141 61.8918 66.3508C61.7321 66.1874 61.6068 65.9938 61.5231 65.7813C61.4395 65.5687 61.3993 65.3416 61.4048 65.1133L61.6041 58.6595C61.6067 58.5531 61.638 58.4493 61.6946 58.3592C61.7512 58.269 61.8311 58.1958 61.9258 58.1473C62.0205 58.0987 62.1266 58.0765 62.2328 58.0832C62.339 58.0898 62.4415 58.125 62.5295 58.1849L69.7983 63.1083C69.8862 63.1679 69.9564 63.2498 70.0018 63.3457C70.0472 63.4416 70.066 63.548 70.0563 63.6536C70.0466 63.7593 70.0088 63.8604 69.9467 63.9464C69.8846 64.0325 69.8006 64.1003 69.7034 64.1429L63.7965 66.7268C63.577 66.8193 63.3457 66.8656 63.1179 66.8656ZM62.7561 59.7711L62.59 65.1441C62.5886 65.2318 62.6092 65.3184 62.6501 65.3959C62.6909 65.4734 62.7506 65.5395 62.8237 65.5878C62.8966 65.6378 62.9809 65.6685 63.0688 65.6772C63.1567 65.6859 63.2454 65.6723 63.3267 65.6377L68.2418 63.4868L62.7561 59.7711Z" fill="black"/>
<path d="M65.4083 65.3723L63.5575 66.1849C63.3851 66.2579 63.1971 66.2867 63.0107 66.2685C62.8243 66.2504 62.6453 66.1859 62.4902 66.081C62.3351 65.976 62.2086 65.834 62.1223 65.6677C62.0361 65.5015 61.9928 65.3163 61.9963 65.1291L62.0556 63.1016C62.6488 63.3068 63.2633 63.6176 63.8684 64.0269C64.4734 64.4374 64.9978 64.8965 65.4083 65.3723Z" fill="#283E42"/>
<path d="M63.1179 66.8658C62.8895 66.8662 62.6634 66.8208 62.4528 66.7324C62.2422 66.644 62.0514 66.5143 61.8918 66.351C61.7321 66.1877 61.6068 65.994 61.5231 65.7815C61.4395 65.569 61.3993 65.3419 61.4048 65.1135L61.4641 63.0837C61.4668 62.9906 61.4914 62.8996 61.5358 62.8178C61.5803 62.736 61.6433 62.6658 61.7199 62.6129C61.7965 62.56 61.8844 62.5259 61.9766 62.5133C62.0688 62.5007 62.1627 62.5099 62.2507 62.5403C62.902 62.7633 63.5592 63.0979 64.2034 63.5345C64.8161 63.9433 65.3728 64.4303 65.8596 64.983C65.9201 65.0533 65.9633 65.1368 65.9857 65.2268C66.008 65.3169 66.009 65.4109 65.9885 65.5013C65.9679 65.5918 65.9265 65.6761 65.8674 65.7477C65.8084 65.8192 65.7334 65.8759 65.6484 65.9131L63.7977 66.727C63.577 66.8195 63.3469 66.8658 63.1179 66.8658ZM62.6256 63.9806L62.59 65.1432C62.5884 65.231 62.6089 65.3178 62.6498 65.3956C62.6906 65.4734 62.7504 65.5396 62.8237 65.5881C62.8966 65.638 62.9809 65.6687 63.0688 65.6774C63.1567 65.6861 63.2454 65.6725 63.3267 65.6379L64.3826 65.1728C64.1158 64.9361 63.8336 64.7173 63.5379 64.518C63.2456 64.3188 62.9417 64.1392 62.6256 63.9806Z" fill="black"/>
<path d="M79.0616 41.6035L65.8301 61.1393L79.0616 41.6035Z" fill="white"/>
<path d="M65.8312 61.7323C65.7235 61.7323 65.6179 61.7029 65.5256 61.6474C65.4334 61.5919 65.358 61.5123 65.3075 61.4172C65.257 61.3221 65.2334 61.2151 65.2391 61.1076C65.2448 61.0001 65.2797 60.8962 65.34 60.807L78.5715 41.2711C78.6141 41.2042 78.6696 41.1464 78.7348 41.1013C78.8001 41.0562 78.8737 41.0247 78.9514 41.0085C79.0291 40.9924 79.1092 40.992 79.187 41.0073C79.2648 41.0227 79.3388 41.0535 79.4045 41.0979C79.4702 41.1424 79.5263 41.1995 79.5695 41.266C79.6128 41.3326 79.6422 41.4071 79.6561 41.4851C79.6701 41.5632 79.6682 41.6433 79.6506 41.7207C79.633 41.798 79.6001 41.8711 79.5538 41.9355L66.3223 61.4713C66.268 61.5517 66.1949 61.6175 66.1092 61.663C66.0236 61.7085 65.9281 61.7323 65.8312 61.7323Z" fill="black"/>
</svg>
